# MagicaVoxel @ Ephtracy

# group
g bot_2

# material
mtllib bot_2.mtl
usemtl palette

# normals
vn -1 0 0
vn 1 0 0
vn 0 0 1
vn 0 0 -1
vn 0 -1 0
vn 0 1 0

# texcoords
vt 0.869141 0.5
vt 0.958984 0.5
vt 0.974609 0.5
vt 0.978516 0.5
vt 0.982422 0.5
vt 0.986328 0.5
vt 0.994141 0.5

# verts
v -10 0 2.5
v -10 0 -2.5
v -10 1 2.5
v -10 1 -2.5
v -9 1 0.5
v -9 1 -1.5
v -9 7 0.5
v -9 7 -1.5
v -9 8 2.5
v -9 8 -3.5
v -9 16 2.5
v -9 16 -3.5
v -8 7 3.5
v -8 7 0.5
v -8 7 -1.5
v -8 7 -4.5
v -8 8 2.5
v -8 8 -3.5
v -8 16 2.5
v -8 16 -3.5
v -8 17 3.5
v -8 17 -4.5
v -7 8 4.5
v -7 8 3.5
v -7 8 -4.5
v -7 8 -5.5
v -7 16 4.5
v -7 16 3.5
v -7 16 -4.5
v -7 16 -5.5
v -5 0 2.5
v -5 0 -2.5
v -5 1 2.5
v -5 1 -2.5
v -4 1 0.5
v -4 1 -1.5
v -4 7 0.5
v -4 7 -1.5
v -4 10 5.5
v -4 10 4.5
v -4 14 5.5
v -4 14 4.5
v -3 9 5.5
v -3 9 4.5
v -3 10 5.5
v -3 10 4.5
v -3 14 5.5
v -3 14 4.5
v -3 15 5.5
v -3 15 4.5
v -3 17 1.5
v -3 17 -2.5
v -3 18 1.5
v -3 18 -2.5
v -3 24 3.5
v -3 24 -4.5
v -3 25 4.5
v -3 25 3.5
v -3 25 -4.5
v -3 25 -5.5
v -3 29 4.5
v -3 29 3.5
v -3 29 -4.5
v -3 29 -5.5
v -3 30 3.5
v -3 30 -4.5
v -2 17 2.5
v -2 17 1.5
v -2 17 -2.5
v -2 17 -3.5
v -2 18 2.5
v -2 18 1.5
v -2 18 -2.5
v -2 18 -3.5
v -2 20 1.5
v -2 20 0.5
v -2 20 -1.5
v -2 20 -2.5
v -2 21 0.5
v -2 21 -1.5
v -2 24 4.5
v -2 24 3.5
v -2 24 -4.5
v -2 24 -5.5
v -2 25 4.5
v -2 25 3.5
v -2 25 -4.5
v -2 25 -5.5
v -2 29 4.5
v -2 29 3.5
v -2 29 -4.5
v -2 29 -5.5
v -2 30 4.5
v -2 30 3.5
v -2 30 -4.5
v -2 30 -5.5
v -1 20 1.5
v -1 20 0.5
v -1 20 -1.5
v -1 20 -2.5
v -1 21 1.5
v -1 21 0.5
v -1 21 -1.5
v -1 21 -2.5
v -1 24 0.5
v -1 24 -1.5
v 1 18 1.5
v 1 18 -2.5
v 1 20 1.5
v 1 20 -2.5
v 1 26 3.5
v 1 26 -3.5
v 1 28 3.5
v 1 28 -3.5
v 2 0 2.5
v 2 0 -2.5
v 2 1 2.5
v 2 1 -2.5
v 2 25 4.5
v 2 25 3.5
v 2 29 4.5
v 2 29 3.5
v 3 1 0.5
v 3 1 -1.5
v 3 7 0.5
v 3 7 -1.5
v 7 0 2.5
v 7 0 -2.5
v 7 1 2.5
v 7 1 -2.5
v 8 1 0.5
v 8 1 -1.5
v 8 7 0.5
v 8 7 -1.5
v -8 1 0.5
v -8 1 -1.5
v -8 7 0.5
v -8 7 -1.5
v -7 0 2.5
v -7 0 -2.5
v -7 1 2.5
v -7 1 -2.5
v -3 1 0.5
v -3 1 -1.5
v -3 7 0.5
v -3 7 -1.5
v -2 0 2.5
v -2 0 -2.5
v -2 1 2.5
v -2 1 -2.5
v -2 25 4.5
v -2 25 3.5
v -2 29 4.5
v -2 29 3.5
v -1 18 1.5
v -1 18 -2.5
v -1 20 1.5
v -1 20 -2.5
v -1 26 3.5
v -1 26 -3.5
v -1 28 3.5
v -1 28 -3.5
v 1 20 1.5
v 1 20 0.5
v 1 20 -1.5
v 1 20 -2.5
v 1 21 1.5
v 1 21 0.5
v 1 21 -1.5
v 1 21 -2.5
v 1 24 0.5
v 1 24 -1.5
v 2 17 2.5
v 2 17 1.5
v 2 17 -2.5
v 2 17 -3.5
v 2 18 2.5
v 2 18 1.5
v 2 18 -2.5
v 2 18 -3.5
v 2 20 1.5
v 2 20 0.5
v 2 20 -1.5
v 2 20 -2.5
v 2 21 0.5
v 2 21 -1.5
v 2 24 4.5
v 2 24 3.5
v 2 24 -4.5
v 2 24 -5.5
v 2 25 4.5
v 2 25 3.5
v 2 25 -4.5
v 2 25 -5.5
v 2 29 4.5
v 2 29 3.5
v 2 29 -4.5
v 2 29 -5.5
v 2 30 4.5
v 2 30 3.5
v 2 30 -4.5
v 2 30 -5.5
v 3 9 5.5
v 3 9 4.5
v 3 10 5.5
v 3 10 4.5
v 3 14 5.5
v 3 14 4.5
v 3 15 5.5
v 3 15 4.5
v 3 17 1.5
v 3 17 -2.5
v 3 18 1.5
v 3 18 -2.5
v 3 24 3.5
v 3 24 -4.5
v 3 25 4.5
v 3 25 3.5
v 3 25 -4.5
v 3 25 -5.5
v 3 29 4.5
v 3 29 3.5
v 3 29 -4.5
v 3 29 -5.5
v 3 30 3.5
v 3 30 -4.5
v 4 1 0.5
v 4 1 -1.5
v 4 7 0.5
v 4 7 -1.5
v 4 10 5.5
v 4 10 4.5
v 4 14 5.5
v 4 14 4.5
v 5 0 2.5
v 5 0 -2.5
v 5 1 2.5
v 5 1 -2.5
v 7 8 4.5
v 7 8 3.5
v 7 8 -4.5
v 7 8 -5.5
v 7 16 4.5
v 7 16 3.5
v 7 16 -4.5
v 7 16 -5.5
v 8 7 3.5
v 8 7 0.5
v 8 7 -1.5
v 8 7 -4.5
v 8 8 2.5
v 8 8 -3.5
v 8 16 2.5
v 8 16 -3.5
v 8 17 3.5
v 8 17 -4.5
v 9 1 0.5
v 9 1 -1.5
v 9 7 0.5
v 9 7 -1.5
v 9 8 2.5
v 9 8 -3.5
v 9 16 2.5
v 9 16 -3.5
v 10 0 2.5
v 10 0 -2.5
v 10 1 2.5
v 10 1 -2.5
v -4 10 5.5
v -4 14 5.5
v -3 9 5.5
v -3 10 5.5
v -3 14 5.5
v -3 15 5.5
v -2 11 5.5
v -2 13 5.5
v -1 11 5.5
v -1 13 5.5
v 1 11 5.5
v 1 13 5.5
v 2 11 5.5
v 2 13 5.5
v 3 9 5.5
v 3 10 5.5
v 3 14 5.5
v 3 15 5.5
v 4 10 5.5
v 4 14 5.5
v -7 8 4.5
v -7 16 4.5
v -4 10 4.5
v -4 14 4.5
v -3 9 4.5
v -3 10 4.5
v -3 14 4.5
v -3 15 4.5
v -3 25 4.5
v -3 29 4.5
v -2 24 4.5
v -2 25 4.5
v -2 29 4.5
v -2 30 4.5
v 2 24 4.5
v 2 25 4.5
v 2 29 4.5
v 2 30 4.5
v 3 9 4.5
v 3 10 4.5
v 3 14 4.5
v 3 15 4.5
v 3 25 4.5
v 3 29 4.5
v 4 10 4.5
v 4 14 4.5
v 7 8 4.5
v 7 16 4.5
v -8 7 3.5
v -8 17 3.5
v -7 8 3.5
v -7 16 3.5
v -3 24 3.5
v -3 25 3.5
v -3 29 3.5
v -3 30 3.5
v -2 24 3.5
v -2 25 3.5
v -2 29 3.5
v -2 30 3.5
v -1 26 3.5
v -1 28 3.5
v 1 26 3.5
v 1 28 3.5
v 2 24 3.5
v 2 25 3.5
v 2 29 3.5
v 2 30 3.5
v 3 24 3.5
v 3 25 3.5
v 3 29 3.5
v 3 30 3.5
v 7 8 3.5
v 7 16 3.5
v 8 7 3.5
v 8 17 3.5
v -10 0 2.5
v -10 1 2.5
v -9 8 2.5
v -9 16 2.5
v -8 8 2.5
v -8 16 2.5
v -7 0 2.5
v -7 1 2.5
v -5 0 2.5
v -5 1 2.5
v -2 0 2.5
v -2 1 2.5
v -2 17 2.5
v -2 18 2.5
v 2 0 2.5
v 2 1 2.5
v 2 17 2.5
v 2 18 2.5
v 5 0 2.5
v 5 1 2.5
v 7 0 2.5
v 7 1 2.5
v 8 8 2.5
v 8 16 2.5
v 9 8 2.5
v 9 16 2.5
v 10 0 2.5
v 10 1 2.5
v -3 17 1.5
v -3 18 1.5
v -2 17 1.5
v -2 18 1.5
v -2 20 1.5
v -1 18 1.5
v -1 20 1.5
v -1 21 1.5
v 1 18 1.5
v 1 20 1.5
v 1 21 1.5
v 2 17 1.5
v 2 18 1.5
v 2 20 1.5
v 3 17 1.5
v 3 18 1.5
v -9 1 0.5
v -9 7 0.5
v -8 1 0.5
v -8 7 0.5
v -4 1 0.5
v -4 7 0.5
v -3 1 0.5
v -3 7 0.5
v -2 20 0.5
v -2 21 0.5
v -1 20 0.5
v -1 21 0.5
v -1 24 0.5
v 1 20 0.5
v 1 21 0.5
v 1 24 0.5
v 2 20 0.5
v 2 21 0.5
v 3 1 0.5
v 3 7 0.5
v 4 1 0.5
v 4 7 0.5
v 8 1 0.5
v 8 7 0.5
v 9 1 0.5
v 9 7 0.5
v -1 26 -3.5
v -1 28 -3.5
v 1 26 -3.5
v 1 28 -3.5
v -9 1 -1.5
v -9 7 -1.5
v -8 1 -1.5
v -8 7 -1.5
v -4 1 -1.5
v -4 7 -1.5
v -3 1 -1.5
v -3 7 -1.5
v -2 20 -1.5
v -2 21 -1.5
v -1 20 -1.5
v -1 21 -1.5
v -1 24 -1.5
v 1 20 -1.5
v 1 21 -1.5
v 1 24 -1.5
v 2 20 -1.5
v 2 21 -1.5
v 3 1 -1.5
v 3 7 -1.5
v 4 1 -1.5
v 4 7 -1.5
v 8 1 -1.5
v 8 7 -1.5
v 9 1 -1.5
v 9 7 -1.5
v -10 0 -2.5
v -10 1 -2.5
v -7 0 -2.5
v -7 1 -2.5
v -5 0 -2.5
v -5 1 -2.5
v -3 17 -2.5
v -3 18 -2.5
v -2 0 -2.5
v -2 1 -2.5
v -2 17 -2.5
v -2 18 -2.5
v -2 20 -2.5
v -1 18 -2.5
v -1 20 -2.5
v -1 21 -2.5
v 1 18 -2.5
v 1 20 -2.5
v 1 21 -2.5
v 2 0 -2.5
v 2 1 -2.5
v 2 17 -2.5
v 2 18 -2.5
v 2 20 -2.5
v 3 17 -2.5
v 3 18 -2.5
v 5 0 -2.5
v 5 1 -2.5
v 7 0 -2.5
v 7 1 -2.5
v 10 0 -2.5
v 10 1 -2.5
v -9 8 -3.5
v -9 16 -3.5
v -8 8 -3.5
v -8 16 -3.5
v -2 17 -3.5
v -2 18 -3.5
v 2 17 -3.5
v 2 18 -3.5
v 8 8 -3.5
v 8 16 -3.5
v 9 8 -3.5
v 9 16 -3.5
v -8 7 -4.5
v -8 17 -4.5
v -7 8 -4.5
v -7 16 -4.5
v -3 24 -4.5
v -3 25 -4.5
v -3 29 -4.5
v -3 30 -4.5
v -2 24 -4.5
v -2 25 -4.5
v -2 29 -4.5
v -2 30 -4.5
v 2 24 -4.5
v 2 25 -4.5
v 2 29 -4.5
v 2 30 -4.5
v 3 24 -4.5
v 3 25 -4.5
v 3 29 -4.5
v 3 30 -4.5
v 7 8 -4.5
v 7 16 -4.5
v 8 7 -4.5
v 8 17 -4.5
v -7 8 -5.5
v -7 16 -5.5
v -3 25 -5.5
v -3 29 -5.5
v -2 24 -5.5
v -2 25 -5.5
v -2 29 -5.5
v -2 30 -5.5
v 2 24 -5.5
v 2 25 -5.5
v 2 29 -5.5
v 2 30 -5.5
v 3 25 -5.5
v 3 29 -5.5
v 7 8 -5.5
v 7 16 -5.5
v -10 0 2.5
v -7 0 2.5
v -5 0 2.5
v -2 0 2.5
v 2 0 2.5
v 5 0 2.5
v 7 0 2.5
v 10 0 2.5
v -10 0 -2.5
v -7 0 -2.5
v -5 0 -2.5
v -2 0 -2.5
v 2 0 -2.5
v 5 0 -2.5
v 7 0 -2.5
v 10 0 -2.5
v -8 7 3.5
v 8 7 3.5
v -8 7 0.5
v -4 7 0.5
v -3 7 0.5
v 3 7 0.5
v 4 7 0.5
v 8 7 0.5
v -8 7 -1.5
v -4 7 -1.5
v -3 7 -1.5
v 3 7 -1.5
v 4 7 -1.5
v 8 7 -1.5
v -8 7 -4.5
v 8 7 -4.5
v -7 8 4.5
v 7 8 4.5
v -7 8 3.5
v 7 8 3.5
v -9 8 2.5
v -8 8 2.5
v 8 8 2.5
v 9 8 2.5
v -9 8 -3.5
v -8 8 -3.5
v 8 8 -3.5
v 9 8 -3.5
v -7 8 -4.5
v 7 8 -4.5
v -7 8 -5.5
v 7 8 -5.5
v -3 9 5.5
v 3 9 5.5
v -3 9 4.5
v 3 9 4.5
v -4 10 5.5
v -3 10 5.5
v 3 10 5.5
v 4 10 5.5
v -4 10 4.5
v -3 10 4.5
v 3 10 4.5
v 4 10 4.5
v -1 20 1.5
v 1 20 1.5
v -1 20 -2.5
v 1 20 -2.5
v -2 24 4.5
v 2 24 4.5
v -3 24 3.5
v -2 24 3.5
v 2 24 3.5
v 3 24 3.5
v -1 24 0.5
v 1 24 0.5
v -1 24 -1.5
v 1 24 -1.5
v -3 24 -4.5
v -2 24 -4.5
v 2 24 -4.5
v 3 24 -4.5
v -2 24 -5.5
v 2 24 -5.5
v -3 25 4.5
v -2 25 4.5
v 2 25 4.5
v 3 25 4.5
v -3 25 3.5
v -2 25 3.5
v 2 25 3.5
v 3 25 3.5
v -3 25 -4.5
v -2 25 -4.5
v 2 25 -4.5
v 3 25 -4.5
v -3 25 -5.5
v -2 25 -5.5
v 2 25 -5.5
v 3 25 -5.5
v -1 28 3.5
v 1 28 3.5
v -1 28 -3.5
v 1 28 -3.5
v -2 29 4.5
v 2 29 4.5
v -2 29 3.5
v 2 29 3.5
v -10 1 2.5
v -7 1 2.5
v -5 1 2.5
v -2 1 2.5
v 2 1 2.5
v 5 1 2.5
v 7 1 2.5
v 10 1 2.5
v -9 1 0.5
v -8 1 0.5
v -4 1 0.5
v -3 1 0.5
v 3 1 0.5
v 4 1 0.5
v 8 1 0.5
v 9 1 0.5
v -9 1 -1.5
v -8 1 -1.5
v -4 1 -1.5
v -3 1 -1.5
v 3 1 -1.5
v 4 1 -1.5
v 8 1 -1.5
v 9 1 -1.5
v -10 1 -2.5
v -7 1 -2.5
v -5 1 -2.5
v -2 1 -2.5
v 2 1 -2.5
v 5 1 -2.5
v 7 1 -2.5
v 10 1 -2.5
v -9 7 0.5
v -8 7 0.5
v 8 7 0.5
v 9 7 0.5
v -9 7 -1.5
v -8 7 -1.5
v 8 7 -1.5
v 9 7 -1.5
v -4 14 5.5
v -3 14 5.5
v 3 14 5.5
v 4 14 5.5
v -4 14 4.5
v -3 14 4.5
v 3 14 4.5
v 4 14 4.5
v -3 15 5.5
v 3 15 5.5
v -3 15 4.5
v 3 15 4.5
v -7 16 4.5
v 7 16 4.5
v -7 16 3.5
v 7 16 3.5
v -9 16 2.5
v -8 16 2.5
v 8 16 2.5
v 9 16 2.5
v -9 16 -3.5
v -8 16 -3.5
v 8 16 -3.5
v 9 16 -3.5
v -7 16 -4.5
v 7 16 -4.5
v -7 16 -5.5
v 7 16 -5.5
v -8 17 3.5
v 8 17 3.5
v -2 17 2.5
v 2 17 2.5
v -3 17 1.5
v -2 17 1.5
v 2 17 1.5
v 3 17 1.5
v -3 17 -2.5
v -2 17 -2.5
v 2 17 -2.5
v 3 17 -2.5
v -2 17 -3.5
v 2 17 -3.5
v -8 17 -4.5
v 8 17 -4.5
v -2 18 2.5
v 2 18 2.5
v -3 18 1.5
v -2 18 1.5
v -1 18 1.5
v 1 18 1.5
v 2 18 1.5
v 3 18 1.5
v -3 18 -2.5
v -2 18 -2.5
v -1 18 -2.5
v 1 18 -2.5
v 2 18 -2.5
v 3 18 -2.5
v -2 18 -3.5
v 2 18 -3.5
v -2 20 1.5
v -1 20 1.5
v 1 20 1.5
v 2 20 1.5
v -2 20 0.5
v -1 20 0.5
v 1 20 0.5
v 2 20 0.5
v -2 20 -1.5
v -1 20 -1.5
v 1 20 -1.5
v 2 20 -1.5
v -2 20 -2.5
v -1 20 -2.5
v 1 20 -2.5
v 2 20 -2.5
v -1 21 1.5
v 1 21 1.5
v -2 21 0.5
v -1 21 0.5
v 1 21 0.5
v 2 21 0.5
v -2 21 -1.5
v -1 21 -1.5
v 1 21 -1.5
v 2 21 -1.5
v -1 21 -2.5
v 1 21 -2.5
v -2 25 4.5
v 2 25 4.5
v -2 25 3.5
v 2 25 3.5
v -1 26 3.5
v 1 26 3.5
v -1 26 -3.5
v 1 26 -3.5
v -3 29 4.5
v -2 29 4.5
v 2 29 4.5
v 3 29 4.5
v -3 29 3.5
v -2 29 3.5
v 2 29 3.5
v 3 29 3.5
v -3 29 -4.5
v -2 29 -4.5
v 2 29 -4.5
v 3 29 -4.5
v -3 29 -5.5
v -2 29 -5.5
v 2 29 -5.5
v 3 29 -5.5
v -2 30 4.5
v 2 30 4.5
v -3 30 3.5
v -2 30 3.5
v 2 30 3.5
v 3 30 3.5
v -3 30 -4.5
v -2 30 -4.5
v 2 30 -4.5
v 3 30 -4.5
v -2 30 -5.5
v 2 30 -5.5

# faces
f 3/6/1 2/6/1 1/6/1
f 4/6/1 2/6/1 3/6/1
f 7/5/1 6/5/1 5/5/1
f 8/5/1 6/5/1 7/5/1
f 11/4/1 10/4/1 9/4/1
f 12/4/1 10/4/1 11/4/1
f 17/4/1 14/4/1 13/4/1
f 17/4/1 16/4/1 15/4/1
f 17/4/1 15/4/1 14/4/1
f 18/4/1 16/4/1 17/4/1
f 19/4/1 17/4/1 13/4/1
f 20/4/1 16/4/1 18/4/1
f 21/4/1 19/4/1 13/4/1
f 21/4/1 20/4/1 19/4/1
f 22/4/1 16/4/1 20/4/1
f 22/4/1 20/4/1 21/4/1
f 27/4/1 24/4/1 23/4/1
f 28/4/1 24/4/1 27/4/1
f 29/4/1 26/4/1 25/4/1
f 30/4/1 26/4/1 29/4/1
f 33/6/1 32/6/1 31/6/1
f 34/6/1 32/6/1 33/6/1
f 37/5/1 36/5/1 35/5/1
f 38/5/1 36/5/1 37/5/1
f 41/6/1 40/6/1 39/6/1
f 42/6/1 40/6/1 41/6/1
f 45/6/1 44/6/1 43/6/1
f 46/6/1 44/6/1 45/6/1
f 49/6/1 48/6/1 47/6/1
f 50/6/1 48/6/1 49/6/1
f 53/5/1 52/5/1 51/5/1
f 54/5/1 52/5/1 53/5/1
f 58/5/1 56/5/1 55/5/1
f 59/5/1 56/5/1 58/5/1
f 61/5/1 58/5/1 57/5/1
f 61/5/1 60/5/1 59/5/1
f 61/5/1 59/5/1 58/5/1
f 62/5/1 60/5/1 61/5/1
f 63/5/1 60/5/1 62/5/1
f 64/5/1 60/5/1 63/5/1
f 65/5/1 63/5/1 62/5/1
f 66/5/1 63/5/1 65/5/1
f 71/5/1 68/5/1 67/5/1
f 72/5/1 68/5/1 71/5/1
f 73/5/1 70/5/1 69/5/1
f 74/5/1 70/5/1 73/5/1
f 75/5/1 73/5/1 72/5/1
f 76/5/1 73/5/1 75/5/1
f 77/5/1 73/5/1 76/5/1
f 78/5/1 73/5/1 77/5/1
f 79/5/1 77/5/1 76/5/1
f 80/5/1 77/5/1 79/5/1
f 85/5/1 82/5/1 81/5/1
f 86/5/1 82/5/1 85/5/1
f 87/5/1 84/5/1 83/5/1
f 88/5/1 84/5/1 87/5/1
f 93/5/1 90/5/1 89/5/1
f 94/5/1 90/5/1 93/5/1
f 95/5/1 92/5/1 91/5/1
f 96/5/1 92/5/1 95/5/1
f 101/5/1 98/5/1 97/5/1
f 102/5/1 98/5/1 101/5/1
f 103/5/1 100/5/1 99/5/1
f 104/5/1 100/5/1 103/5/1
f 105/5/1 103/5/1 102/5/1
f 106/5/1 103/5/1 105/5/1
f 109/5/1 108/5/1 107/5/1
f 110/5/1 108/5/1 109/5/1
f 113/1/1 112/1/1 111/1/1
f 114/1/1 112/1/1 113/1/1
f 117/6/1 116/6/1 115/6/1
f 118/6/1 116/6/1 117/6/1
f 121/5/1 120/5/1 119/5/1
f 122/5/1 120/5/1 121/5/1
f 125/5/1 124/5/1 123/5/1
f 126/5/1 124/5/1 125/5/1
f 129/6/1 128/6/1 127/6/1
f 130/6/1 128/6/1 129/6/1
f 133/5/1 132/5/1 131/5/1
f 134/5/1 132/5/1 133/5/1
f 135/5/2 136/5/2 137/5/2
f 137/5/2 136/5/2 138/5/2
f 139/6/2 140/6/2 141/6/2
f 141/6/2 140/6/2 142/6/2
f 143/5/2 144/5/2 145/5/2
f 145/5/2 144/5/2 146/5/2
f 147/6/2 148/6/2 149/6/2
f 149/6/2 148/6/2 150/6/2
f 151/5/2 152/5/2 153/5/2
f 153/5/2 152/5/2 154/5/2
f 155/5/2 156/5/2 157/5/2
f 157/5/2 156/5/2 158/5/2
f 159/1/2 160/1/2 161/1/2
f 161/1/2 160/1/2 162/1/2
f 163/5/2 164/5/2 167/5/2
f 167/5/2 164/5/2 168/5/2
f 165/5/2 166/5/2 169/5/2
f 169/5/2 166/5/2 170/5/2
f 168/5/2 169/5/2 171/5/2
f 171/5/2 169/5/2 172/5/2
f 173/5/2 174/5/2 177/5/2
f 177/5/2 174/5/2 178/5/2
f 175/5/2 176/5/2 179/5/2
f 179/5/2 176/5/2 180/5/2
f 178/5/2 179/5/2 181/5/2
f 181/5/2 179/5/2 182/5/2
f 182/5/2 179/5/2 183/5/2
f 183/5/2 179/5/2 184/5/2
f 182/5/2 183/5/2 185/5/2
f 185/5/2 183/5/2 186/5/2
f 187/5/2 188/5/2 191/5/2
f 191/5/2 188/5/2 192/5/2
f 189/5/2 190/5/2 193/5/2
f 193/5/2 190/5/2 194/5/2
f 195/5/2 196/5/2 199/5/2
f 199/5/2 196/5/2 200/5/2
f 197/5/2 198/5/2 201/5/2
f 201/5/2 198/5/2 202/5/2
f 203/6/2 204/6/2 205/6/2
f 205/6/2 204/6/2 206/6/2
f 207/6/2 208/6/2 209/6/2
f 209/6/2 208/6/2 210/6/2
f 211/5/2 212/5/2 213/5/2
f 213/5/2 212/5/2 214/5/2
f 215/5/2 216/5/2 218/5/2
f 218/5/2 216/5/2 219/5/2
f 217/5/2 218/5/2 221/5/2
f 219/5/2 220/5/2 221/5/2
f 218/5/2 219/5/2 221/5/2
f 221/5/2 220/5/2 222/5/2
f 222/5/2 220/5/2 223/5/2
f 223/5/2 220/5/2 224/5/2
f 222/5/2 223/5/2 225/5/2
f 225/5/2 223/5/2 226/5/2
f 227/5/2 228/5/2 229/5/2
f 229/5/2 228/5/2 230/5/2
f 231/6/2 232/6/2 233/6/2
f 233/6/2 232/6/2 234/6/2
f 235/6/2 236/6/2 237/6/2
f 237/6/2 236/6/2 238/6/2
f 239/4/2 240/4/2 243/4/2
f 243/4/2 240/4/2 244/4/2
f 241/4/2 242/4/2 245/4/2
f 245/4/2 242/4/2 246/4/2
f 247/4/2 248/4/2 251/4/2
f 249/4/2 250/4/2 251/4/2
f 248/4/2 249/4/2 251/4/2
f 251/4/2 250/4/2 252/4/2
f 247/4/2 251/4/2 253/4/2
f 252/4/2 250/4/2 254/4/2
f 247/4/2 253/4/2 255/4/2
f 253/4/2 254/4/2 255/4/2
f 254/4/2 250/4/2 256/4/2
f 255/4/2 254/4/2 256/4/2
f 257/5/2 258/5/2 259/5/2
f 259/5/2 258/5/2 260/5/2
f 261/4/2 262/4/2 263/4/2
f 263/4/2 262/4/2 264/4/2
f 265/6/2 266/6/2 267/6/2
f 267/6/2 266/6/2 268/6/2
f 272/6/3 270/6/3 269/6/3
f 273/6/3 270/6/3 272/6/3
f 275/3/3 273/3/3 272/3/3
f 276/3/3 273/3/3 275/3/3
f 277/3/3 275/3/3 272/3/3
f 277/2/3 276/2/3 275/2/3
f 278/3/3 273/3/3 276/3/3
f 278/2/3 276/2/3 277/2/3
f 279/3/3 277/3/3 272/3/3
f 279/7/3 278/7/3 277/7/3
f 280/3/3 273/3/3 278/3/3
f 280/7/3 278/7/3 279/7/3
f 281/3/3 279/3/3 272/3/3
f 281/2/3 280/2/3 279/2/3
f 282/3/3 273/3/3 280/3/3
f 282/2/3 280/2/3 281/2/3
f 283/6/3 272/6/3 271/6/3
f 284/3/3 281/3/3 272/3/3
f 284/6/3 272/6/3 283/6/3
f 284/3/3 282/3/3 281/3/3
f 285/3/3 273/3/3 282/3/3
f 285/3/3 282/3/3 284/3/3
f 285/6/3 274/6/3 273/6/3
f 286/6/3 274/6/3 285/6/3
f 287/6/3 285/6/3 284/6/3
f 288/6/3 285/6/3 287/6/3
f 291/4/3 290/4/3 289/4/3
f 292/4/3 290/4/3 291/4/3
f 293/4/3 291/4/3 289/4/3
f 294/4/3 291/4/3 293/4/3
f 295/4/3 290/4/3 292/4/3
f 296/4/3 290/4/3 295/4/3
f 300/5/3 298/5/3 297/5/3
f 301/5/3 298/5/3 300/5/3
f 303/5/3 300/5/3 299/5/3
f 304/5/3 300/5/3 303/5/3
f 305/5/3 302/5/3 301/5/3
f 306/5/3 302/5/3 305/5/3
f 307/4/3 293/4/3 289/4/3
f 310/4/3 290/4/3 296/4/3
f 311/5/3 305/5/3 304/5/3
f 312/5/3 305/5/3 311/5/3
f 313/4/3 308/4/3 307/4/3
f 314/4/3 310/4/3 309/4/3
f 315/4/3 313/4/3 307/4/3
f 315/4/3 314/4/3 313/4/3
f 315/4/3 307/4/3 289/4/3
f 316/4/3 310/4/3 314/4/3
f 316/4/3 314/4/3 315/4/3
f 316/4/3 290/4/3 310/4/3
f 319/4/3 318/4/3 317/4/3
f 320/4/3 318/4/3 319/4/3
f 325/5/3 322/5/3 321/5/3
f 326/5/3 322/5/3 325/5/3
f 327/5/3 324/5/3 323/5/3
f 328/5/3 324/5/3 327/5/3
f 329/1/3 327/1/3 326/1/3
f 330/1/3 327/1/3 329/1/3
f 331/1/3 329/1/3 326/1/3
f 332/1/3 327/1/3 330/1/3
f 334/1/3 331/1/3 326/1/3
f 334/1/3 332/1/3 331/1/3
f 335/1/3 327/1/3 332/1/3
f 335/1/3 332/1/3 334/1/3
f 337/5/3 334/5/3 333/5/3
f 338/5/3 334/5/3 337/5/3
f 339/5/3 336/5/3 335/5/3
f 340/5/3 336/5/3 339/5/3
f 341/4/3 319/4/3 317/4/3
f 342/4/3 318/4/3 320/4/3
f 343/4/3 341/4/3 317/4/3
f 343/4/3 342/4/3 341/4/3
f 344/4/3 318/4/3 342/4/3
f 344/4/3 342/4/3 343/4/3
f 349/4/3 348/4/3 347/4/3
f 350/4/3 348/4/3 349/4/3
f 351/6/3 346/6/3 345/6/3
f 352/6/3 346/6/3 351/6/3
f 355/6/3 354/6/3 353/6/3
f 356/6/3 354/6/3 355/6/3
f 361/5/3 358/5/3 357/5/3
f 362/5/3 358/5/3 361/5/3
f 363/6/3 360/6/3 359/6/3
f 364/6/3 360/6/3 363/6/3
f 369/4/3 368/4/3 367/4/3
f 370/4/3 368/4/3 369/4/3
f 371/6/3 366/6/3 365/6/3
f 372/6/3 366/6/3 371/6/3
f 375/5/3 374/5/3 373/5/3
f 376/5/3 374/5/3 375/5/3
f 378/5/3 377/5/3 376/5/3
f 379/5/3 377/5/3 378/5/3
f 382/5/3 380/5/3 379/5/3
f 383/5/3 380/5/3 382/5/3
f 385/5/3 382/5/3 381/5/3
f 386/5/3 382/5/3 385/5/3
f 387/5/3 385/5/3 384/5/3
f 388/5/3 385/5/3 387/5/3
f 391/5/3 390/5/3 389/5/3
f 392/5/3 390/5/3 391/5/3
f 395/5/3 394/5/3 393/5/3
f 396/5/3 394/5/3 395/5/3
f 399/5/3 398/5/3 397/5/3
f 400/5/3 398/5/3 399/5/3
f 403/5/3 401/5/3 400/5/3
f 404/5/3 401/5/3 403/5/3
f 405/5/3 403/5/3 402/5/3
f 406/5/3 403/5/3 405/5/3
f 409/5/3 408/5/3 407/5/3
f 410/5/3 408/5/3 409/5/3
f 413/5/3 412/5/3 411/5/3
f 414/5/3 412/5/3 413/5/3
f 417/1/3 416/1/3 415/1/3
f 418/1/3 416/1/3 417/1/3
f 419/5/4 420/5/4 421/5/4
f 421/5/4 420/5/4 422/5/4
f 423/5/4 424/5/4 425/5/4
f 425/5/4 424/5/4 426/5/4
f 427/5/4 428/5/4 429/5/4
f 429/5/4 428/5/4 430/5/4
f 430/5/4 431/5/4 433/5/4
f 433/5/4 431/5/4 434/5/4
f 432/5/4 433/5/4 435/5/4
f 435/5/4 433/5/4 436/5/4
f 437/5/4 438/5/4 439/5/4
f 439/5/4 438/5/4 440/5/4
f 441/5/4 442/5/4 443/5/4
f 443/5/4 442/5/4 444/5/4
f 445/6/4 446/6/4 447/6/4
f 447/6/4 446/6/4 448/6/4
f 449/6/4 450/6/4 453/6/4
f 453/6/4 450/6/4 454/6/4
f 451/5/4 452/5/4 455/5/4
f 455/5/4 452/5/4 456/5/4
f 456/5/4 457/5/4 458/5/4
f 458/5/4 457/5/4 459/5/4
f 459/5/4 460/5/4 462/5/4
f 462/5/4 460/5/4 463/5/4
f 461/5/4 462/5/4 467/5/4
f 467/5/4 462/5/4 468/5/4
f 466/5/4 467/5/4 469/5/4
f 469/5/4 467/5/4 470/5/4
f 464/6/4 465/6/4 471/6/4
f 471/6/4 465/6/4 472/6/4
f 473/6/4 474/6/4 475/6/4
f 475/6/4 474/6/4 476/6/4
f 477/4/4 478/4/4 479/4/4
f 479/4/4 478/4/4 480/4/4
f 481/5/4 482/5/4 483/5/4
f 483/5/4 482/5/4 484/5/4
f 485/4/4 486/4/4 487/4/4
f 487/4/4 486/4/4 488/4/4
f 489/4/4 490/4/4 491/4/4
f 491/4/4 490/4/4 492/4/4
f 493/5/4 494/5/4 497/5/4
f 497/5/4 494/5/4 498/5/4
f 495/5/4 496/5/4 499/5/4
f 499/5/4 496/5/4 500/5/4
f 501/5/4 502/5/4 505/5/4
f 505/5/4 502/5/4 506/5/4
f 503/5/4 504/5/4 507/5/4
f 507/5/4 504/5/4 508/5/4
f 489/4/4 491/4/4 509/4/4
f 492/4/4 490/4/4 510/4/4
f 489/4/4 509/4/4 511/4/4
f 509/4/4 510/4/4 511/4/4
f 510/4/4 490/4/4 512/4/4
f 511/4/4 510/4/4 512/4/4
f 515/5/4 516/5/4 518/5/4
f 518/5/4 516/5/4 519/5/4
f 517/5/4 518/5/4 521/5/4
f 519/5/4 520/5/4 521/5/4
f 518/5/4 519/5/4 521/5/4
f 521/5/4 520/5/4 522/5/4
f 522/5/4 520/5/4 523/5/4
f 523/5/4 520/5/4 524/5/4
f 522/5/4 523/5/4 525/5/4
f 525/5/4 523/5/4 526/5/4
f 513/4/4 514/4/4 527/4/4
f 527/4/4 514/4/4 528/4/4
f 537/6/5 530/6/5 529/6/5
f 538/6/5 530/6/5 537/6/5
f 539/6/5 532/6/5 531/6/5
f 540/6/5 532/6/5 539/6/5
f 541/6/5 534/6/5 533/6/5
f 542/6/5 534/6/5 541/6/5
f 543/6/5 536/6/5 535/6/5
f 544/6/5 536/6/5 543/6/5
f 547/4/5 546/4/5 545/4/5
f 548/4/5 546/4/5 547/4/5
f 549/4/5 546/4/5 548/4/5
f 550/4/5 546/4/5 549/4/5
f 551/4/5 546/4/5 550/4/5
f 552/4/5 546/4/5 551/4/5
f 553/4/5 548/4/5 547/4/5
f 554/4/5 548/4/5 553/4/5
f 555/4/5 550/4/5 549/4/5
f 556/4/5 550/4/5 555/4/5
f 557/4/5 552/4/5 551/4/5
f 558/4/5 552/4/5 557/4/5
f 559/4/5 556/4/5 555/4/5
f 559/4/5 554/4/5 553/4/5
f 559/4/5 558/4/5 557/4/5
f 559/4/5 557/4/5 556/4/5
f 559/4/5 555/4/5 554/4/5
f 560/4/5 558/4/5 559/4/5
f 563/4/5 562/4/5 561/4/5
f 564/4/5 562/4/5 563/4/5
f 569/4/5 566/4/5 565/4/5
f 570/4/5 566/4/5 569/4/5
f 571/4/5 568/4/5 567/4/5
f 572/4/5 568/4/5 571/4/5
f 575/4/5 574/4/5 573/4/5
f 576/4/5 574/4/5 575/4/5
f 579/6/5 578/6/5 577/6/5
f 580/6/5 578/6/5 579/6/5
f 585/6/5 582/6/5 581/6/5
f 586/6/5 582/6/5 585/6/5
f 587/6/5 584/6/5 583/6/5
f 588/6/5 584/6/5 587/6/5
f 591/5/5 590/5/5 589/5/5
f 592/5/5 590/5/5 591/5/5
f 596/5/5 594/5/5 593/5/5
f 597/5/5 594/5/5 596/5/5
f 599/5/5 596/5/5 595/5/5
f 599/5/5 598/5/5 597/5/5
f 599/5/5 597/5/5 596/5/5
f 600/5/5 598/5/5 599/5/5
f 601/5/5 599/5/5 595/5/5
f 602/5/5 598/5/5 600/5/5
f 603/5/5 601/5/5 595/5/5
f 603/5/5 602/5/5 601/5/5
f 604/5/5 602/5/5 603/5/5
f 605/5/5 598/5/5 602/5/5
f 605/5/5 602/5/5 604/5/5
f 606/5/5 598/5/5 605/5/5
f 607/5/5 605/5/5 604/5/5
f 608/5/5 605/5/5 607/5/5
f 613/5/5 610/5/5 609/5/5
f 614/5/5 610/5/5 613/5/5
f 615/5/5 612/5/5 611/5/5
f 616/5/5 612/5/5 615/5/5
f 621/5/5 618/5/5 617/5/5
f 622/5/5 618/5/5 621/5/5
f 623/5/5 620/5/5 619/5/5
f 624/5/5 620/5/5 623/5/5
f 627/1/5 626/1/5 625/1/5
f 628/1/5 626/1/5 627/1/5
f 631/5/5 630/5/5 629/5/5
f 632/5/5 630/5/5 631/5/5
f 633/6/6 634/6/6 641/6/6
f 641/6/6 634/6/6 642/6/6
f 635/6/6 636/6/6 643/6/6
f 643/6/6 636/6/6 644/6/6
f 637/6/6 638/6/6 645/6/6
f 645/6/6 638/6/6 646/6/6
f 639/6/6 640/6/6 647/6/6
f 647/6/6 640/6/6 648/6/6
f 633/6/6 641/6/6 649/6/6
f 642/6/6 634/6/6 650/6/6
f 635/6/6 643/6/6 651/6/6
f 644/6/6 636/6/6 652/6/6
f 637/6/6 645/6/6 653/6/6
f 646/6/6 638/6/6 654/6/6
f 639/6/6 647/6/6 655/6/6
f 648/6/6 640/6/6 656/6/6
f 633/6/6 649/6/6 657/6/6
f 649/6/6 650/6/6 657/6/6
f 650/6/6 634/6/6 658/6/6
f 657/6/6 650/6/6 658/6/6
f 635/6/6 651/6/6 659/6/6
f 651/6/6 652/6/6 659/6/6
f 652/6/6 636/6/6 660/6/6
f 659/6/6 652/6/6 660/6/6
f 637/6/6 653/6/6 661/6/6
f 653/6/6 654/6/6 661/6/6
f 654/6/6 638/6/6 662/6/6
f 661/6/6 654/6/6 662/6/6
f 655/6/6 656/6/6 663/6/6
f 639/6/6 655/6/6 663/6/6
f 656/6/6 640/6/6 664/6/6
f 663/6/6 656/6/6 664/6/6
f 665/5/6 666/5/6 669/5/6
f 669/5/6 666/5/6 670/5/6
f 667/5/6 668/5/6 671/5/6
f 671/5/6 668/5/6 672/5/6
f 673/6/6 674/6/6 677/6/6
f 677/6/6 674/6/6 678/6/6
f 675/6/6 676/6/6 679/6/6
f 679/6/6 676/6/6 680/6/6
f 681/6/6 682/6/6 683/6/6
f 683/6/6 682/6/6 684/6/6
f 685/4/6 686/4/6 687/4/6
f 687/4/6 686/4/6 688/4/6
f 689/4/6 690/4/6 693/4/6
f 693/4/6 690/4/6 694/4/6
f 691/4/6 692/4/6 695/4/6
f 695/4/6 692/4/6 696/4/6
f 697/4/6 698/4/6 699/4/6
f 699/4/6 698/4/6 700/4/6
f 701/4/6 702/4/6 703/4/6
f 703/4/6 702/4/6 704/4/6
f 701/4/6 703/4/6 705/4/6
f 705/4/6 703/4/6 706/4/6
f 704/4/6 702/4/6 707/4/6
f 707/4/6 702/4/6 708/4/6
f 701/4/6 705/4/6 709/4/6
f 708/4/6 702/4/6 712/4/6
f 709/4/6 710/4/6 713/4/6
f 711/4/6 712/4/6 714/4/6
f 709/4/6 713/4/6 715/4/6
f 713/4/6 714/4/6 715/4/6
f 701/4/6 709/4/6 715/4/6
f 714/4/6 712/4/6 716/4/6
f 715/4/6 714/4/6 716/4/6
f 712/4/6 702/4/6 716/4/6
f 717/5/6 718/5/6 720/5/6
f 720/5/6 718/5/6 721/5/6
f 721/5/6 718/5/6 722/5/6
f 722/5/6 718/5/6 723/5/6
f 719/5/6 720/5/6 725/5/6
f 725/5/6 720/5/6 726/5/6
f 721/5/6 722/5/6 727/5/6
f 727/5/6 722/5/6 728/5/6
f 723/5/6 724/5/6 729/5/6
f 729/5/6 724/5/6 730/5/6
f 727/5/6 728/5/6 731/5/6
f 728/5/6 729/5/6 731/5/6
f 726/5/6 727/5/6 731/5/6
f 731/5/6 729/5/6 732/5/6
f 733/5/6 734/5/6 737/5/6
f 737/5/6 734/5/6 738/5/6
f 735/5/6 736/5/6 739/5/6
f 739/5/6 736/5/6 740/5/6
f 741/5/6 742/5/6 745/5/6
f 745/5/6 742/5/6 746/5/6
f 743/5/6 744/5/6 747/5/6
f 747/5/6 744/5/6 748/5/6
f 749/5/6 750/5/6 752/5/6
f 752/5/6 750/5/6 753/5/6
f 751/5/6 752/5/6 755/5/6
f 755/5/6 752/5/6 756/5/6
f 753/5/6 754/5/6 757/5/6
f 757/5/6 754/5/6 758/5/6
f 756/5/6 757/5/6 759/5/6
f 759/5/6 757/5/6 760/5/6
f 761/5/6 762/5/6 763/5/6
f 763/5/6 762/5/6 764/5/6
f 765/1/6 766/1/6 767/1/6
f 767/1/6 766/1/6 768/1/6
f 769/5/6 770/5/6 773/5/6
f 773/5/6 770/5/6 774/5/6
f 771/5/6 772/5/6 775/5/6
f 775/5/6 772/5/6 776/5/6
f 777/5/6 778/5/6 781/5/6
f 781/5/6 778/5/6 782/5/6
f 779/5/6 780/5/6 783/5/6
f 783/5/6 780/5/6 784/5/6
f 785/5/6 786/5/6 788/5/6
f 788/5/6 786/5/6 789/5/6
f 787/5/6 788/5/6 791/5/6
f 789/5/6 790/5/6 791/5/6
f 788/5/6 789/5/6 791/5/6
f 791/5/6 790/5/6 792/5/6
f 792/5/6 790/5/6 793/5/6
f 793/5/6 790/5/6 794/5/6
f 792/5/6 793/5/6 795/5/6
f 795/5/6 793/5/6 796/5/6
